<svg aria-hidden="true" style="position: absolute; width: 0; height: 0; overflow: hidden;" version="1.1" xmlns="http://www.w3.org/2000/svg" xmlns:xlink="http://www.w3.org/1999/xlink">
<defs>
<symbol id="icon-unchecked" viewBox="0 0 33 32">
<path d="M25.361 2.316v16.237h-17.32v-16.237h17.32zM25.361-0.004h-17.32c-1.361 0-2.475 1.044-2.475 2.32v16.237c0 1.276 1.113 2.32 2.475 2.32h17.32c1.361 0 2.475-1.044 2.475-2.32v-16.237c0-1.276-1.113-2.32-2.475-2.32z"></path>
<path fill="none" stroke="#000" style="stroke: var(--color1, #000)" stroke-linejoin="miter" stroke-linecap="butt" stroke-miterlimit="4" stroke-width="1.3913" d="M26.057 2.316v-0.696h-18.711v17.629h18.711v-16.933zM8.042 0.692h17.32c1.020 0 1.779 0.774 1.779 1.624v16.237c0 0.849-0.759 1.624-1.779 1.624h-17.32c-1.020 0-1.779-0.774-1.779-1.624v-16.237c0-0.85 0.759-1.624 1.779-1.624z"></path>
</symbol>
</defs>
</svg>
